<svg id="Layer_1" data-name="Layer 1" xmlns="http://www.w3.org/2000/svg" viewBox="0 0 60.12 60.16"><title>icon (1)</title><path d="M60.1,31.37c-3.37,1.31-3.71,1-4.21-3.76A26,26,0,1,0,27.23,55.92c.63.07,1.25.12,1.87.2,3,.36,3.39,1,2.2,4H25.67C14.32,58.91,6.8,52.55,1.89,42.57.61,40,.63,37.18,0,34.5V25.73C1.25,14.39,7.61,6.87,17.6,2,20.18.68,23,.69,25.67.07h8.76C45.77,1.32,53.29,7.68,58.21,17.66c1.27,2.59,1.26,5.38,1.89,8.07Z"/><path d="M17.92,28.13c2,0,4,0,5.94,0,3.69,0,4.19-.5,4.2-4.1,0-4.26,0-8.53,0-12.79,0-1.5-.06-3.14,2.09-3.06,1.93.06,1.87,1.59,1.87,3,0,3.75,0,7.49,0,11.24,0,2-.19,4,1.41,5.81,1.22,1.4.8,3.4-.65,4.8s-3.31,1.69-4.56.57c-1.92-1.7-4-1.46-6.11-1.47-3.64,0-7.28,0-10.92,0-1.49,0-3.14.1-3.09-2.06,0-1.93,1.55-1.9,3-1.9Z"/><path d="M57.22,43.13C51.6,40,46,36.9,40.31,33.81c-.72-.39-1.49-.69-2.06-1-2,.26-2.19,1.58-2.19,3,0,6.45-.05,12.9,0,19.36,0,3.08,1.16,3.67,4,2.14q8.63-4.68,17.18-9.47C60.25,46.22,60.24,44.81,57.22,43.13Zm-17,9.52V38.39l13,7.12Z"/></svg>