<svg id="Layer_1" data-name="Layer 1" xmlns="http://www.w3.org/2000/svg" viewBox="0 0 60.12 60.16"><title>icon (2)</title><path d="M37.49,18.43a12.23,12.23,0,0,0,5-14c-.21-.69-.5-1.42-1.17-1.26-1.66.4-1.81-.74-2.17-1.79C39,.87,39-.1,38.06.22s-.39,1-.18,1.62c2.81,8.37,1.22,12.26-4.68,15.1a2,2,0,0,1-2.14,1.55,1.28,1.28,0,0,1-1.53,1.05,1.8,1.8,0,0,1-2.12-.05,14,14,0,0,0-7.32,7.19,8.5,8.5,0,0,0,0,4.87,9.37,9.37,0,0,0,4,4.1c1.41.73,1.62,1.7,1.46,3.1a33.29,33.29,0,0,1-6.18,15.72c-1.74,2.43-1.59,3.23.84,5.16,2,.63,3.37-.15,4.55-1.75a37.59,37.59,0,0,0,6.76-15.57c.2-1.06.14-2.22.94-3.2.86.88.62,1.89.61,2.81-.06,4.81.36,9.64-.79,14.41-.4,1.66-.13,3.24,2,3.74h2.42c2.31-2.22,2.65-5.19,2.91-8.12.92-10.4-.73-20.55-3.09-30.62C36.11,20,36.17,19.26,37.49,18.43ZM25,26a23.63,23.63,0,0,1,.57,6C22.72,30.13,22.59,28.36,25,26Z"/><path d="M52.59,23.71H49.16a2.66,2.66,0,0,0-1.59,2.71c0,1.06-.6,2.93.39,3,1.57.12.57-1.7.9-2.63a1.36,1.36,0,0,1,.13-.27c0,2.4,0,4.88,0,7.36,0,1,0,2.08,1.57,1.4V29.45h.59v5.91c1.18.46,1.39-.2,1.4-1.17,0-1.53,0-3,.06-4.58A9.14,9.14,0,0,1,52.77,26c.53,1.27.16,2.47.31,3.63l.94,0V25.24C53.34,24.93,53.43,23.89,52.59,23.71Z"/><path d="M30.07,18.72a3.81,3.81,0,0,0,.58-.41,3.91,3.91,0,0,1,.57-.31,2.72,2.72,0,0,0,.46-.21l1.19-1.26c.86-2.25.9-4.41-.92-6.22A4.83,4.83,0,0,0,26.88,9a5.15,5.15,0,0,0-3.67,4.82c0,2.35,1.32,4,4.2,5.17l1.48,0Zm1.58-3.28c-.84,2.12-1.24,2.25-3.39,1.28Z"/><path d="M8.48,24a2.26,2.26,0,0,0-1.31,2.81c.22.94-1.19,2.48.88,2.83V26.05c.08.14.14.27.2.4,0-.13,0-.27,0-.41a2.89,2.89,0,0,1,.08.58,6.74,6.74,0,0,1,.19,3c0,1.56.05,3.13.06,4.69,0,1,.29,1.55,1.4,1V29.41h.59v5.91c1.62.7,1.52-.46,1.53-1.44,0-2.49,0-5,0-7.46A19.27,19.27,0,0,1,12.45,29c0,.23.38.45.63.6.06,0,.44-.28.46-.45.17-1.68.44-3.53-.76-4.85S9.88,23.56,8.48,24Z"/><path d="M43.39,23.69c-3.71-.14-5.06,2.17-3.34,6,1-1.12,0-2.55.88-3.83,0,2.88,0,5.53,0,8.18,0,1.27.26,2,1.6.92V29.5h.27V35c1.3,1.1,1.62.41,1.62-.89,0-2.65,0-5.3,0-8.3.63,1.24.3,2.22.43,3.15,0,.35.16.62.57.6.12,0,.34-.11.35-.19a8.64,8.64,0,0,0-.24-4.51C45.14,23.84,44.35,23.73,43.39,23.69Z"/><path d="M18.81,30.57h.3l0-.46a2.74,2.74,0,0,1,0-1.7,2.79,2.79,0,0,1,.59-1.71,4,4,0,0,1,.78-2c.26-.56.11-.93-.55-1-3.09-.14-4.8-.45-4.75,3.44,0,.79-.49,2.22.43,2.28,1.23.07.51-1.35.7-2.1a7.61,7.61,0,0,0,.12-1.17c.21,2.64.22,5.27.21,7.9,0,1.06.18,1.84,1.51,1.18V29.48C19.12,29.55,18.61,30.23,18.81,30.57Z"/><path d="M10.34,23.43a1.42,1.42,0,0,0,1.41-1.56,1.38,1.38,0,0,0-1.57-1.4A1.29,1.29,0,0,0,8.92,21.9,1.38,1.38,0,0,0,10.34,23.43Z"/><path d="M18.44,23.39a1.35,1.35,0,0,0,1.33-1.64c-.07-.85-.64-1.22-1.45-1.29-.91.19-1.5.76-1.37,1.66A1.35,1.35,0,0,0,18.44,23.39Z"/><path d="M41.24,21.76a1.44,1.44,0,1,0,2.85.21,1.43,1.43,0,0,0-2.85-.21Z"/><path d="M51.09,23.24a2.58,2.58,0,0,0,.94-.49c.2-.81.31-1.6-.58-2.12a1.28,1.28,0,0,0-1.56.13,1.4,1.4,0,0,0-.26,2.12,1.77,1.77,0,0,0,.8.38A3.64,3.64,0,0,1,51.09,23.24Z"/><path d="M19,30.72a.42.42,0,0,1-.16,0c0,.42,0,.83,0,1.25a5.14,5.14,0,0,1,0,2.21v1.2c.88.46,1.32.19,1.42-.81a7.71,7.71,0,0,0-.45-3l-.57-.88A.43.43,0,0,1,19,30.72Z"/><path d="M10.26,32a10.44,10.44,0,0,0-.06-2.38C10.18,30.41,10.23,31.21,10.26,32Z"/><path d="M10,35.34l.59,0a6.05,6.05,0,0,1-.31-1.72A8.09,8.09,0,0,1,10,35.34Z"/><path d="M18.17,35.29l.58.05c-.06-.25-.12-.49-.16-.74A3.64,3.64,0,0,1,18.17,35.29Z"/><path d="M18.63,30.5l-.07-.08.09.64c0-.13.08-.26.13-.39A.31.31,0,0,1,18.63,30.5Z"/><path d="M18.78,30.67h0v-.11Z"/><path d="M18.59,34.6a2.85,2.85,0,0,0,.17-.46l0-2.21c0-.29-.09-.58-.14-.87A7.7,7.7,0,0,0,18.59,34.6Z"/><path d="M51.06,29.79h0a7,7,0,0,0-.18,2.73C50.93,31.6,51.05,30.69,51.06,29.79Z"/><path d="M50.56,35.28l.59.08A6.71,6.71,0,0,1,50.89,34,3.83,3.83,0,0,1,50.56,35.28Z"/><path d="M19.18,30.62c.33.21.36.6.54.9l.17.06.18,0a4.28,4.28,0,0,1-.77-1A.43.43,0,0,1,19.18,30.62Z"/><path d="M20.09,26.68a.92.92,0,0,0-.37,0c0,.22-.08.45-.11.68A7.18,7.18,0,0,1,20.09,26.68Z"/><path d="M19.14,30.1a4.3,4.3,0,0,0,.16.41.51.51,0,0,0,.12-.2,13.76,13.76,0,0,1,.19-2.94,4.33,4.33,0,0,0-.48,1C19.1,29,19.15,29.53,19.14,30.1Z"/><path d="M19.15,30.64l0,0-.07-.06Z"/><path d="M42.52,35l.13.05.14-.05a12.74,12.74,0,0,1-.13-1.74A11.34,11.34,0,0,1,42.52,35Z"/><path d="M42.65,32.09c0-.89.06-1.76,0-2.57A24.3,24.3,0,0,0,42.65,32.09Z"/><path d="M51.57,23.32a3.56,3.56,0,0,1,1,.39l-.56-1A2.58,2.58,0,0,1,51.57,23.32Z"/><path d="M49.63,22.88l-.47.83a3.76,3.76,0,0,1,1-.39A4,4,0,0,1,49.63,22.88Z"/><path d="M50.43,23.26l-.27.06a1,1,0,0,0,1.41,0,4,4,0,0,0-.48-.08A1.34,1.34,0,0,1,50.43,23.26Z"/><path d="M8.31,26.62l-.06-.17c0,.36.05.71.07,1.06A8.81,8.81,0,0,0,8.31,26.62Z"/><path d="M8.05,29.59l.45,0a3.53,3.53,0,0,1-.19-1.06A3.61,3.61,0,0,1,8.05,29.59Z"/><path d="M52.81,27.69a8.2,8.2,0,0,0,0-1.48A6.06,6.06,0,0,0,52.81,27.69Z"/><path d="M52.61,29.61l.47,0a3,3,0,0,1-.27-1A3.07,3.07,0,0,1,52.61,29.61Z"/><path d="M33.2,16.94c.07-.28-.09-.37-.33-.41a1.66,1.66,0,0,1-.17.62A2.41,2.41,0,0,1,33.2,16.94Z"/><path d="M31.08,18.45h0v0a3,3,0,0,0,1.63-1.32c-.35.19-.67.44-1,.64l-.62.66Z"/><path d="M27.41,19a1.85,1.85,0,0,0,0,.47c.25-.06.5-.1.75-.14A1.8,1.8,0,0,1,27.41,19Z"/><path d="M28.16,19.35a2.21,2.21,0,0,0,.77,0l.28-.06L29,19.16A8.6,8.6,0,0,1,28.16,19.35Z"/><path d="M29.1,19.14a1.71,1.71,0,0,1,.23.13A3.41,3.41,0,0,0,31,18.49l0,0-1,.27a4.38,4.38,0,0,1-.79.37Z"/><path d="M31,18.49h0v0Z"/><path d="M31.08,18.45l-.06,0h0l.06,0Z"/><path d="M29.33,19.27l-.12,0,.32.25A.52.52,0,0,0,29.33,19.27Z"/><path d="M28.89,19l.15.12.06,0A1,1,0,0,1,28.89,19Z"/></svg>