<svg id="Layer_1" data-name="Layer 1" xmlns="http://www.w3.org/2000/svg" viewBox="0 0 60.16 60.16"><title>icon (3)</title><path d="M0,15.32C.31,25.77,0,36.23.06,46.69.07,55,5.14,60,13.42,60.05c10.46,0,20.92-.25,31.37.1,7.54.25,12.62-2.6,15.32-9.65V9.55A15.47,15.47,0,0,0,50.55,0H9.61C2.56,2.7-.29,7.78,0,15.32Zm5-1.83C5,7.88,8,4.93,13.64,4.9q16.53-.06,33.06,0c5.47,0,8.44,3,8.5,8.43s0,10.9,0,16.36,0,11.13,0,16.7c0,5.83-3,8.74-8.86,8.76q-16.37,0-32.72,0C8,55.13,5,52.17,5,46.55Q4.89,30,5,13.49Z" transform="translate(0.05)"/><path d="M20.2,47.06A20.21,20.21,0,0,0,40.08,47a13.24,13.24,0,0,0,7.09-11c.31-3.34-.9-4.65-4.21-4.71-4.2-.07-8.4,0-12.61,0s-8.63-.05-12.94,0c-3.5.05-4.76,1.39-4.42,4.85A13.18,13.18,0,0,0,20.2,47.06Zm18.38-4.32c-5.22,3.4-12.4,3.34-16.79.07C26.55,39.13,32.92,39.06,38.58,42.74Z" transform="translate(0.05)"/><path d="M19.74,25A4.59,4.59,0,0,0,20,15.82a4.75,4.75,0,0,0-4.8,4.65A4.7,4.7,0,0,0,19.74,25Z" transform="translate(0.05)"/><path d="M40.38,25A4.68,4.68,0,0,0,45,20.51a4.74,4.74,0,0,0-4.41-4.69A4.59,4.59,0,1,0,40.38,25Z" transform="translate(0.05)"/></svg>